<?xml version="1.0" encoding="UTF-8"?>
<svg version="1.1" viewBox="0 0 144 144" xmlns="http://www.w3.org/2000/svg"><g transform="translate(-20.076 -83.989)"><path d="m91.854 202.88c-7.0123-22.819-16.873-45.587-33.96-62.736-2.2866.36904.32426 8.2545-.41729 11.535.08004 9.5124.21834 19.227-2.1593 28.483-2.8902 7.559-12.348 8.7156-19.283 7.1531-5.4443-1.2346-11.523-2.8316-15.256-7.2609-1.4492-7.488 1.0953-15.254 4.1991-22.021 3.5677-7.4516 1.6037 4.142 2.1177 7.0846-.23648 4.7829 1.9412 10.76 7.3454 11.425 4.8541.99466 13.394 2.572 14.714-4.1224 2.2307-12.554.22174-25.511-2.6908-37.788-2.0359-8.7821-5.2034-17.223-8.6501-25.527 9.1463 5.1574 17.186 12.724 24.208 20.627 13.667 15.885 22.901 35.052 29.667 54.731 2.7812-2.3487 3.0996-8.5237 5.3248-12.102 9.618-24.286 24.772-47.347 46.903-61.916 5.0955-3.791-1.2028 5.6709-1.3479 8.136-5.8904 16.366-9.8595 33.966-8.0572 51.447-.25436 5.449 4.9932 8.5064 9.956 7.3008 4.3651-.24963 10.096-1.1322 11.495-6.0574 1.9738-5.2187.7374-11.011 1.0626-16.421 4.5596 6.1049 6.3452 13.973 6.8422 21.48.73856 5.4764-5.191 7.4851-9.1692 9.2245-7.4132 2.4862-17.17 4.3579-23.406-1.6187-4.5309-4.7834-3.6459-12.051-4.4936-18.142-.38904-8.6969-.25192-17.435.43725-26.113-4.239 2.7058-7.4119 7.8319-10.771 11.84-11.405 15.341-18.521 33.314-24.315 51.383l-.29674-.0252z" style="fill:#000000;stroke-width:.11759"/></g></svg>
